<?xml version="1.0" standalone="no"?>
<!DOCTYPE svg PUBLIC "-//W3C//DTD SVG 20010904//EN"
 "http://www.w3.org/TR/2001/REC-SVG-20010904/DTD/svg10.dtd">
<svg version="1.0" xmlns="http://www.w3.org/2000/svg"
 width="223.000000pt" height="223.000000pt" viewBox="0 0 223.000000 223.000000"
 preserveAspectRatio="xMidYMid meet">
<metadata>
Created by potrace 1.16, written by Peter Selinger 2001-2019
</metadata>
<g transform="translate(0.000000,223.000000) scale(0.100000,-0.100000)"
fill="#000000" stroke="none">
<path d="M1060 2200 c0 -27 -3 -30 -34 -30 -52 0 -216 -45 -305 -83 -249 -108
-470 -329 -578 -578 -37 -86 -83 -252 -83 -300 0 -26 -4 -29 -30 -29 l-30 0 0
-70 0 -70 29 0 c27 0 29 -3 34 -52 15 -127 77 -293 154 -416 l48 -77 5 55 5
55 78 3 77 3 0 194 0 195 165 0 165 0 0 -195 c0 -123 4 -195 10 -195 6 0 10
94 10 263 -1 234 -2 259 -15 230 -23 -55 -66 -73 -170 -73 -106 0 -141 16
-169 75 -23 48 -19 188 7 225 28 40 68 60 124 60 l52 0 75 98 75 97 1 68 c0
83 19 130 62 157 27 16 50 20 126 20 80 0 98 -3 124 -21 38 -27 58 -74 58
-136 0 -44 4 -51 57 -105 l57 -58 64 0 c60 0 67 2 113 41 43 36 49 45 49 80 0
55 22 102 61 130 30 21 45 24 124 24 102 0 131 -12 165 -68 15 -25 20 -50 20
-110 0 -141 -42 -187 -172 -187 -62 0 -78 -3 -93 -20 -18 -20 -17 -20 108 -20
l127 0 0 -385 0 -384 78 -3 77 -3 5 -48 5 -48 31 48 c74 114 134 265 156 392
12 68 13 71 40 71 l28 0 0 95 0 95 -30 0 c-26 0 -30 4 -30 28 0 54 -52 219
-99 317 -115 235 -317 430 -552 532 -89 38 -253 83 -305 83 -31 0 -34 3 -34
30 l0 30 -60 0 -60 0 0 -30z"/>
<path d="M355 389 c105 -108 247 -203 389 -261 78 -32 219 -68 266 -68 27 0
30 -3 30 -30 l0 -30 75 0 75 0 0 30 c0 27 3 30 30 30 47 0 188 36 266 68 142
58 284 153 389 261 l39 41 -799 0 -799 0 39 -41z"/>
</g>
</svg>
