<?xml version="1.0" encoding="UTF-8" standalone="no"?>
<svg
   xmlns:dc="http://purl.org/dc/elements/1.1/"
   xmlns:cc="http://creativecommons.org/ns#"
   xmlns:rdf="http://www.w3.org/1999/02/22-rdf-syntax-ns#"
   xmlns:svg="http://www.w3.org/2000/svg"
   xmlns="http://www.w3.org/2000/svg"
   xmlns:sodipodi="http://sodipodi.sourceforge.net/DTD/sodipodi-0.dtd"
   xmlns:inkscape="http://www.inkscape.org/namespaces/inkscape"
   fill="#507dbf"
   height="353.553391"
   viewBox="0 0 283.475 354.397"
   width="282.842712"
   version="1.1"
   id="svg386"
   sodipodi:docname="1.svg"
   inkscape:version="0.92.4 (5da689c313, 2019-01-14)">
  <metadata
     id="metadata392">
    <rdf:RDF>
      <cc:Work
         rdf:about="">
        <dc:format>image/svg+xml</dc:format>
        <dc:type
           rdf:resource="http://purl.org/dc/dcmitype/StillImage" />
      </cc:Work>
    </rdf:RDF>
  </metadata>
  <defs
     id="defs390" />
  <sodipodi:namedview
     pagecolor="#ffffff"
     bordercolor="#666666"
     borderopacity="1"
     objecttolerance="10"
     gridtolerance="10"
     guidetolerance="10"
     inkscape:pageopacity="0"
     inkscape:pageshadow="2"
     inkscape:window-width="1366"
     inkscape:window-height="705"
     id="namedview388"
     showgrid="false"
     inkscape:zoom="1.5160369"
     inkscape:cx="141.42136"
     inkscape:cy="176.7767"
     inkscape:window-x="-8"
     inkscape:window-y="-8"
     inkscape:window-maximized="1"
     inkscape:current-layer="svg386" />
  <path
     d="m14.606 260.318v-1.518l5.316.127 8.029-.165a11.27 11.27 0 0 1 3.716.494 5.1 5.1 0 0 1 2.347 1.791 5.452 5.452 0 0 1 .978 3.363 8.091 8.091 0 0 1 -.945 3.838 7.3 7.3 0 0 1 -2.945 2.914 8.494 8.494 0 0 1 -4.284 1.142 9.936 9.936 0 0 1 -1.124-.063 10.313 10.313 0 0 1 -1.083-.19 7.887 7.887 0 0 0 -.646-1.3l.376-.4a6.226 6.226 0 0 0 .747.191 3.548 3.548 0 0 0 .637.061 3.667 3.667 0 0 0 2.87-1.253 5.227 5.227 0 0 0 1.133-3.645 5.322 5.322 0 0 0 -1.185-3.765 4.324 4.324 0 0 0 -3.3-1.262 11.9 11.9 0 0 0 -2.24.239c-.066.757-.1 1.864-.113 3.328l-.054 3.582v6.926q0 2.56.091 5.3a9.683 9.683 0 0 0 .193 2.009.823.823 0 0 0 .24.317 1.438 1.438 0 0 0 .618.212l2.416.164v1.61q-4.6-.126-6.917-.131c-1.7 0-3.321.047-4.867.131v-1.61a7.136 7.136 0 0 0 2.517-.31.613.613 0 0 0 .249-.275 4.617 4.617 0 0 0 .2-1.332c.136-1.949.2-4.118.2-6.508v-6.452l-.087-3.433c-.023-1.476-.052-2.395-.08-2.762a2.223 2.223 0 0 0 -.169-.785.675.675 0 0 0 -.242-.256 1.972 1.972 0 0 0 -.616-.2z"
     id="path202"
     style="fill:#000000" />
  <path
     d="m38.785 260.3v-1.5c.274 0 1.229.026 2.872.087.8.026 1.939.04 3.412.04 1.258 0 2.332-.026 3.229-.082 1.483-.066 2.713-.1 3.681-.1a16.282 16.282 0 0 1 4.221.409 4.6 4.6 0 0 1 2.388 1.711 5.086 5.086 0 0 1 .985 3.168 6.608 6.608 0 0 1 -1.342 4.026 8.921 8.921 0 0 1 -4.151 2.872c.3.546.642 1.1 1.027 1.669s.606.914.67 1.034.136.237.209.346l2.783 4.225q1.113 1.689 1.2 1.815c.9 1.21 1.45 1.925 1.652 2.141a1.949 1.949 0 0 0 .592.453 3.517 3.517 0 0 0 1.135.146v1.608c-1.847-.045-3.182-.073-4-.073-.959 0-1.911.028-2.856.073a4.635 4.635 0 0 0 -.432-1.044l-3.841-6.451q-1.653-2.778-2.806-4.369a5.249 5.249 0 0 0 -1.112-1.2l.2-.6a7.306 7.306 0 0 0 3.256-.446 4.314 4.314 0 0 0 1.849-1.871 6.04 6.04 0 0 0 .752-3.011 4.73 4.73 0 0 0 -.789-2.8 4.193 4.193 0 0 0 -1.956-1.558 9.036 9.036 0 0 0 -2.7-.275 9.834 9.834 0 0 0 -1.706.148q-.05.655-.106 2.959-.108 5.178-.11 6.917 0 2.742.059 5.817c.042 2.512.082 3.939.1 4.282a4.263 4.263 0 0 0 .2 1.332.748.748 0 0 0 .23.266 1.371 1.371 0 0 0 .52.193 18.419 18.419 0 0 0 2.087.11v1.608q-3.07-.127-6.217-.13-2.8 0-5.184.13v-1.608a13.437 13.437 0 0 0 2.423-.2.565.565 0 0 0 .312-.181 1.206 1.206 0 0 0 .151-.515 16.857 16.857 0 0 0 .183-2.157l.145-5.349v-6.788l-.092-3.857a11.947 11.947 0 0 0 -.216-2.745.674.674 0 0 0 -.266-.308 9.914 9.914 0 0 0 -2.641-.366"
     id="path204"
     style="fill:#000000" />
  <path
     d="m67.863 284.369v-.989a8.731 8.731 0 0 0 1.758-1.058c.075-.512.137-1.339.186-2.486q.144-3.146.143-4.567v-8.226q0-.476-.058-3.563a9.438 9.438 0 0 0 -.25-2.524.614.614 0 0 0 -.27-.275 10.08 10.08 0 0 0 -2.583-.327v-1.407l4.162-.028c.83-.008 1.62-.008 2.372-.008q2.457 0 5.481-.054l3.643-.094c.43 0 1.306.026 2.62.071a2.755 2.755 0 0 1 .6.113l.124.237-.343 2.632c-.007.184-.07 1.06-.176 2.633h-1.4a16.981 16.981 0 0 0 -.16-2.649.678.678 0 0 0 -.219-.369 4.24 4.24 0 0 0 -1.429-.291 30.959 30.959 0 0 0 -3.48-.2c-1.06 0-2.148.045-3.258.13a45.553 45.553 0 0 0 -.256 5.29v3.777c.816.061 1.664.089 2.545.089.275 0 1.27-.023 2.973-.073a3.206 3.206 0 0 0 1.138-.127.7.7 0 0 0 .261-.385 9.282 9.282 0 0 0 .251-2.322h1.455l-.091 4.021.091 4h-1.463a6.643 6.643 0 0 0 -.27-2.613 1.039 1.039 0 0 0 -.78-.461 21.272 21.272 0 0 0 -3.211-.2 26.737 26.737 0 0 0 -2.907.126v7.665c0 .855.021 1.591.059 2.2.97.087 2.115.129 3.441.129q1.938 0 3.574-.129a5.779 5.779 0 0 0 2.017-.367.672.672 0 0 0 .235-.326 19.779 19.779 0 0 0 .679-3.328h1.469a57.873 57.873 0 0 0 -.388 5.96l-.237.235a31.057 31.057 0 0 1 -3.267.129l-2.891-.065c-2.848-.043-4.816-.064-5.89-.064q-.434 0-6 .129"
     id="path206"
     style="fill:#000000" />
  <path
     d="m108.075 265.47h-1.509a23.36 23.36 0 0 0 -.183-3 4.543 4.543 0 0 0 -1.922-1.427 7.406 7.406 0 0 0 -3.075-.62 5.3 5.3 0 0 0 -3.774 1.252 3.911 3.911 0 0 0 -1.335 2.941 4.55 4.55 0 0 0 .39 1.957 2.936 2.936 0 0 0 1.081 1.192 7.667 7.667 0 0 0 2.064.806q1.039.215 2.895.548c1.234.221 2.038.371 2.409.458a8.933 8.933 0 0 1 2.351.924 4.832 4.832 0 0 1 1.421 1.241 5.807 5.807 0 0 1 .875 1.774 7.976 7.976 0 0 1 .341 2.4 8.579 8.579 0 0 1 -.952 4.113 8.723 8.723 0 0 1 -1.991 2.44 9.588 9.588 0 0 1 -2.623 1.654 13.7 13.7 0 0 1 -5.177.877 16.753 16.753 0 0 1 -3.93-.418 18.453 18.453 0 0 1 -3.789-1.448 26.844 26.844 0 0 0 .574-6.341h1.509a23.33 23.33 0 0 0 .2 3.283 5.706 5.706 0 0 0 2.336 2 7.706 7.706 0 0 0 3.61.858 7.243 7.243 0 0 0 3.041-.611 4.049 4.049 0 0 0 1.942-1.694 4.989 4.989 0 0 0 .6-2.454 4.287 4.287 0 0 0 -.423-1.974 3.142 3.142 0 0 0 -1.318-1.321 13.827 13.827 0 0 0 -3.164-1.025q-3.246-.695-4.27-1a6.214 6.214 0 0 1 -2.487-1.373 5.586 5.586 0 0 1 -1.41-2.169 7.77 7.77 0 0 1 -.47-2.731 8.45 8.45 0 0 1 .844-3.772 6.789 6.789 0 0 1 2.228-2.682 9.15 9.15 0 0 1 3.128-1.358 15.418 15.418 0 0 1 3.57-.414 19.621 19.621 0 0 1 3.692.345 12.185 12.185 0 0 1 3.1 1.006l.141.437a21.412 21.412 0 0 0 -.367 2.325c-.077.757-.136 1.758-.169 3"
     id="path208"
     style="fill:#000000" />
  <path
     d="m125.906 258.8v1.608a17.1 17.1 0 0 0 -2.167.136 1.2 1.2 0 0 0 -.489.2.655.655 0 0 0 -.2.3 4.581 4.581 0 0 0 -.179 1.189c-.023.318-.042.915-.051 1.791q-.075 4.493-.073 4.842v7.368l.054 3.342a10.139 10.139 0 0 0 .178 2.451.751.751 0 0 0 .245.393 1.376 1.376 0 0 0 .54.218 17.233 17.233 0 0 0 2.144.12v1.608c-1.951-.085-4.04-.13-6.25-.13q-2.894 0-5.158.13v-1.608c1.25-.049 1.967-.092 2.16-.129a1.044 1.044 0 0 0 .51-.2.59.59 0 0 0 .169-.291 15.635 15.635 0 0 0 .146-1.721q.144-2.193.145-4.056v-7.641c0-2.423-.016-3.986-.04-4.677a24.416 24.416 0 0 0 -.211-2.907.846.846 0 0 0 -.174-.365.907.907 0 0 0 -.428-.211 18.676 18.676 0 0 0 -2.277-.155v-1.605q2.264.128 5.191.127 3.29 0 6.217-.127"
     id="path210"
     style="fill:#000000" />
  <path
     d="m138.591 282.12a19.716 19.716 0 0 0 3.194.275 15.862 15.862 0 0 0 4.237-.512 7.544 7.544 0 0 0 2.39-1.114 8.26 8.26 0 0 0 1.967-2.155 11.471 11.471 0 0 0 1.46-3.4 16.741 16.741 0 0 0 .524-4.261 15.642 15.642 0 0 0 -.524-4.028 9.073 9.073 0 0 0 -1.706-3.406 6.676 6.676 0 0 0 -3-2.122 17.1 17.1 0 0 0 -5.493-.658 21.852 21.852 0 0 0 -3.05.237q-.185 2.595-.184 9.77v4.2q0 5.441.184 7.173m-7.166 2.249v-.876c.1-.061.258-.16.5-.294a11.481 11.481 0 0 0 1.243-.8c.136-1.636.2-4.28.2-7.946v-3q0-2.415-.087-7.077a19.5 19.5 0 0 0 -.235-3.288.618.618 0 0 0 -.138-.253.931.931 0 0 0 -.449-.221c-.2-.05-.95-.16-2.252-.332v-1.481l6.515.127q1.149 0 4.327-.1 2.295-.058 3.678-.061a26.457 26.457 0 0 1 5.091.393 10.261 10.261 0 0 1 3.325 1.262 9.511 9.511 0 0 1 2.393 2.054 8.8 8.8 0 0 1 1.485 2.559 14.64 14.64 0 0 1 .844 5.047 14.812 14.812 0 0 1 -1.257 6.23 12.95 12.95 0 0 1 -3.455 4.588 13.912 13.912 0 0 1 -4.762 2.66 20.654 20.654 0 0 1 -6.195.813l-5.328-.129z"
     id="path212"
     style="fill:#000000" />
  <path
     d="m162.629 284.369v-.989a8.78 8.78 0 0 0 1.76-1.058c.071-.512.134-1.339.181-2.486q.144-3.146.146-4.567v-8.226q0-.476-.059-3.563a9.456 9.456 0 0 0 -.249-2.524.609.609 0 0 0 -.27-.275 10.1 10.1 0 0 0 -2.586-.327v-1.407l4.167-.028c.828-.008 1.617-.008 2.369-.008q2.462 0 5.481-.054l3.643-.094c.428 0 1.3.026 2.621.071a2.718 2.718 0 0 1 .594.113l.125.237-.343 2.632c-.01.184-.073 1.06-.179 2.633h-1.4a16.563 16.563 0 0 0 -.158-2.649.707.707 0 0 0 -.216-.369 4.285 4.285 0 0 0 -1.431-.291 30.977 30.977 0 0 0 -3.481-.2c-1.06 0-2.148.045-3.257.13a44.892 44.892 0 0 0 -.256 5.29v3.777c.815.061 1.664.089 2.545.089.275 0 1.269-.023 2.973-.073a3.239 3.239 0 0 0 1.14-.127.688.688 0 0 0 .258-.385 9.319 9.319 0 0 0 .252-2.322h1.455l-.092 4.021.092 4h-1.454a6.664 6.664 0 0 0 -.27-2.613 1.05 1.05 0 0 0 -.783-.461 21.21 21.21 0 0 0 -3.208-.2 26.724 26.724 0 0 0 -2.907.126v7.665c0 .855.021 1.591.058 2.2.966.087 2.118.129 3.441.129q1.935 0 3.575-.129a5.754 5.754 0 0 0 2.016-.367.648.648 0 0 0 .235-.326 19.75 19.75 0 0 0 .68-3.328h1.463a57.394 57.394 0 0 0 -.39 5.96l-.238.235a31.018 31.018 0 0 1 -3.267.129l-2.89-.065q-4.274-.064-5.893-.064-.434 0-6 .129"
     id="path214"
     style="fill:#000000" />
  <path
     d="m185.81 282.815a18.842 18.842 0 0 0 2.423-.2.777.777 0 0 0 .334-.238 1.641 1.641 0 0 0 .226-.679c.072-.463.152-1.582.251-3.363q.071-1.512.07-3.946v-5.864l-.091-5.321a11.316 11.316 0 0 0 -.1-1.735 1.322 1.322 0 0 0 -.261-.594 1.178 1.178 0 0 0 -.56-.3 18.145 18.145 0 0 0 -2.289-.238v-1.537c1.523.087 2.639.13 3.359.13l2.6-.066 1.655-.064q3.7 4.918 8.964 11.333 3.786 4.626 6.284 7.239v-4.226q0-9.831-.218-11.568a1.31 1.31 0 0 0 -.322-.876 6.554 6.554 0 0 0 -2.8-.367v-1.535q2.189.13 4.016.13 1.781 0 4.581-.13v1.535a7 7 0 0 0 -2.6.332.457.457 0 0 0 -.2.272 21.221 21.221 0 0 0 -.345 4.177c-.059 2.174-.082 3.781-.082 4.815q0 12.153.23 14.748l-.23.165c-1.009-.17-2.029-.329-3.072-.475q-5.8-6.6-16.452-19.81v9.1q0 2.83.129 5.9a14.39 14.39 0 0 0 .212 2.578.733.733 0 0 0 .247.355 1.247 1.247 0 0 0 .6.193 15.168 15.168 0 0 0 1.706.143c.073 0 .193 0 .362-.017v1.489q-3.412-.057-3.88-.056-1.749 0-4.741.129z"
     id="path216"
     style="fill:#000000" />
  <path
     d="m241.361 281.062-.825 1.845a17.977 17.977 0 0 1 -4.033 1.652 18.6 18.6 0 0 1 -4.464.449 17.408 17.408 0 0 1 -6.733-1.224 12.178 12.178 0 0 1 -6.355-6.141 14.842 14.842 0 0 1 -1.312-6.231 12.343 12.343 0 0 1 3.871-9.4q3.867-3.649 10.924-3.648a23.4 23.4 0 0 1 4.358.367 29.3 29.3 0 0 1 4.481 1.3l.088.237a11.332 11.332 0 0 0 -.449 2.158q-.268 2.069-.344 3.821h-1.4c-.023-1.342-.087-2.411-.183-3.22a7.94 7.94 0 0 0 -2.7-1.906 10.013 10.013 0 0 0 -3.838-.629 8.783 8.783 0 0 0 -6.75 2.714q-2.531 2.711-2.531 7.573a14.116 14.116 0 0 0 .853 5.137 10.511 10.511 0 0 0 2.27 3.627 9.949 9.949 0 0 0 2.853 2.094 11.6 11.6 0 0 0 4.743.876 13.921 13.921 0 0 0 3.465-.42 16.556 16.556 0 0 0 3.556-1.441z"
     id="path218"
     style="fill:#000000" />
  <path
     d="m259.13 270.912 2.254-3.72q.57-1 3.408-6.113c.655-1.164 1.069-1.925 1.233-2.278h2.844v.821q-2.178 2.982-4.693 7t-3.114 5.171a6.074 6.074 0 0 0 -.527 1.37 7.859 7.859 0 0 0 -.084 1.372v3.089q0 2.322.115 3.382a3.456 3.456 0 0 0 .277 1.278.975.975 0 0 0 .536.329 14.73 14.73 0 0 0 2.371.148v1.608q-3.418-.127-6.183-.129-2.686 0-5.45.129v-1.608a17.944 17.944 0 0 0 2.4-.167.828.828 0 0 0 .486-.272 2.816 2.816 0 0 0 .191-1.1c.056-1.389.091-2.571.091-3.546v-3.472a5.318 5.318 0 0 0 -.686-1.734q-1.692-3.146-3.61-6.195a29.614 29.614 0 0 0 -2.91-3.989 6.548 6.548 0 0 0 -1.279-1.186 6.017 6.017 0 0 0 -1.582-.11v-1.37l3.8-.766c.644-.149 1.309-.311 2-.494a8.4 8.4 0 0 1 1.594 1.1 11.943 11.943 0 0 1 1.388 1.826 44.671 44.671 0 0 1 2.6 4.55q2.094 4.131 2.529 5.076"
     id="path220"
     style="fill:#000000" />
  <path
     d="m14.787 296.842v-1.133q2.943.12 5.471.123 2.564 0 5.091-.123v1.133a12.745 12.745 0 0 0 -2.586.188 1.057 1.057 0 0 0 -.632.414 4.112 4.112 0 0 0 -.284 1.713q-.021.357-.092 5.027v6.544a15.894 15.894 0 0 0 .5 5.013 4.619 4.619 0 0 0 1.58 2.007 6.639 6.639 0 0 0 2.239.963 12.649 12.649 0 0 0 3.14.36 12.113 12.113 0 0 0 3.589-.482 6.364 6.364 0 0 0 2.36-1.187 4.639 4.639 0 0 0 1.173-1.567 8.276 8.276 0 0 0 .557-2.374 34.348 34.348 0 0 0 .174-3.831v-5.446c0-1.605-.028-3.175-.092-4.705a5.308 5.308 0 0 0 -.24-1.993 1.221 1.221 0 0 0 -.674-.456 12.755 12.755 0 0 0 -2.588-.188v-1.133q2.971.12 4.346.123c.829 0 2.319-.043 4.482-.123v1.133a12.7 12.7 0 0 0 -2.593.188 1.167 1.167 0 0 0 -.639.414 4.362 4.362 0 0 0 -.266 1.713q-.021.357-.072 5.027v5.923a20.381 20.381 0 0 1 -.626 6.1 6.905 6.905 0 0 1 -2.282 3.057 9.023 9.023 0 0 1 -3.208 1.542 16.21 16.21 0 0 1 -4.341.548 16.054 16.054 0 0 1 -4.822-.647 7.645 7.645 0 0 1 -3.105-1.7 5.873 5.873 0 0 1 -1.46-2.148 16.343 16.343 0 0 1 -.507-4.86v-7.82c0-1.605-.014-3.175-.054-4.705a5.426 5.426 0 0 0 -.261-1.993 1.221 1.221 0 0 0 -.67-.456 12.835 12.835 0 0 0 -2.606-.188"
     id="path222"
     style="fill:#000000" />
  <path
     d="m47.5 320.844v-1.133a7.648 7.648 0 0 0 2.51-.282.675.675 0 0 0 .364-.336 6.147 6.147 0 0 0 .252-1.855c.056-1.553.092-2.9.092-4.026v-14.395a2.422 2.422 0 0 0 -.073-.757 2.52 2.52 0 0 0 -.645-.76 1.558 1.558 0 0 0 -.75-.362 14.206 14.206 0 0 0 -1.885-.1v-1.135c2.08.047 3.389.07 3.92.07q1.368 0 2.71-.07 1.517 1.963 2.228 2.895l3.693 4.5 5.379 6.424q2.587 3.074 4.151 4.839 1.005 1.167 1.676 1.835v-12.883q0-1.726-.125-4.056a6.742 6.742 0 0 0 -.233-1.819.743.743 0 0 0 -.383-.332 7.944 7.944 0 0 0 -2.47-.263v-1.135q2.13.07 4.313.07 2.063 0 3.739-.07v1.135a8.077 8.077 0 0 0 -2.491.263.67.67 0 0 0 -.362.355 6.091 6.091 0 0 0 -.254 1.857q-.091 2.329-.092 4.012v8.5q0 2.582.092 9.634l-1.859-.529-.43-.091a.619.619 0 0 1 -.2-.106 7.064 7.064 0 0 1 -.689-.715c-1-1.121-1.734-1.971-2.2-2.54l-2.324-2.919-12.8-15.155v13.721q0 1.749.127 4.13a6.344 6.344 0 0 0 .235 1.823.711.711 0 0 0 .378.36 7.959 7.959 0 0 0 2.47.268v1.133q-1.583-.124-3.5-.122-2.094 0-4.55.122"
     id="path224"
     style="fill:#000000" />
  <path
     d="m91.916 319.711v1.133q-3.835-.124-5.044-.122l-5.572.122v-1.133a13.518 13.518 0 0 0 2.588-.183 1.2 1.2 0 0 0 .644-.419 4.371 4.371 0 0 0 .272-1.715q.018-.37.092-5.023v-8.186q0-2.408-.059-4.707a5.325 5.325 0 0 0 -.261-1.991 1.184 1.184 0 0 0 -.665-.456 12.566 12.566 0 0 0 -2.611-.188v-1.135q3.444.123 5.316.124c1.2 0 2.971-.042 5.3-.124v1.135a12.449 12.449 0 0 0 -2.6.188 1.143 1.143 0 0 0 -.634.414 4.452 4.452 0 0 0 -.271 1.713q-.021.355-.087 5.027v8.186c0 1.605.014 3.168.052 4.689a5.417 5.417 0 0 0 .263 2 1.193 1.193 0 0 0 .668.473 13.548 13.548 0 0 0 2.606.183"
     id="path226"
     style="fill:#000000" />
  <path
     d="m108.91 321.021q-.543-1.541-2.259-5.943l-6.139-14.878q-.974-2.37-1.21-2.743a.916.916 0 0 0 -.452-.334 7.656 7.656 0 0 0 -1.985-.284v-1.133q3.267.12 4.82.122 1.459 0 4.966-.122v1.133c-1.467.024-2.322.052-2.553.089a.83.83 0 0 0 -.491.209.511.511 0 0 0 -.134.353 4.1 4.1 0 0 0 .252.94c.519 1.608.968 2.9 1.358 3.873l5.648 13.984 4.717-11.6c.682-1.664 1.335-3.469 1.965-5.429a7.955 7.955 0 0 0 .4-1.556.573.573 0 0 0 -.47-.569 21.456 21.456 0 0 0 -2.78-.3v-1.133q2.724.12 4.1.122 1.4 0 3.883-.122v1.133a6.6 6.6 0 0 0 -1.643.176 1.263 1.263 0 0 0 -.51.5c-.108.176-.552 1.135-1.332 2.867l-5.634 13.583-1.394 3.483c-.284.7-.521 1.3-.7 1.807s-.376 1.095-.595 1.767z"
     id="path228"
     style="fill:#000000" />
  <path
     d="m127.957 320.844v-1.133a7.5 7.5 0 0 0 2.489-.282.678.678 0 0 0 .367-.336 6.455 6.455 0 0 0 .251-1.857c.071-1.556.106-2.895.106-4.028v-9.032c0-1.6-.021-3.168-.054-4.7a5.553 5.553 0 0 0 -.261-1.988 1.247 1.247 0 0 0 -.67-.461 13.06 13.06 0 0 0 -2.606-.183v-1.135l5.147.1 5.45-.084q3.917-.052 5.69-.054a27.684 27.684 0 0 1 3.37.193 14.883 14.883 0 0 0 -.4 1.75q-.034.163-.324 3.686h-1.133a18.848 18.848 0 0 0 -.237-3.295 8.429 8.429 0 0 0 -2.186-.548 32.831 32.831 0 0 0 -4.043-.249c-.289 0-.933.023-1.932.073s-1.715.087-2.15.124c-.045 1.3-.085 2.527-.108 3.669l-.073 5.958q2.115.127 3.883.125a28.951 28.951 0 0 0 3.666-.2 1.084 1.084 0 0 0 .743-.284 4.163 4.163 0 0 0 .284-1.448l.113-1.238h1.081v.333l-.092 3.683.092 4.125h-1.267l-.051-1.2a4.1 4.1 0 0 0 -.242-1.631 1.2 1.2 0 0 0 -.785-.442 23.8 23.8 0 0 0 -3.994-.214c-.8 0-1.948.028-3.431.09q-.088 1.768-.087 5.257 0 3.274.087 4.973 2.6.193 5.824.195a25.456 25.456 0 0 0 3.262-.143 7.693 7.693 0 0 0 1.8-.477 10.654 10.654 0 0 0 .435-1.488c.263-1.05.437-1.838.524-2.371h1.2a47.655 47.655 0 0 0 -.47 5.929 26.2 26.2 0 0 1 -3.767.231l-10.783-.122c-.155 0-1.735.039-4.729.122"
     id="path230"
     style="fill:#000000" />
  <path
     d="m153 296.842v-1.133c.47.012 1.183.026 2.146.047l3.469.076c.684 0 1.751-.019 3.194-.064 1.88-.063 2.966-.094 3.267-.094a15.238 15.238 0 0 1 5.029.6 4.881 4.881 0 0 1 2.447 1.953 5.388 5.388 0 0 1 .867 2.949 6.06 6.06 0 0 1 -.813 2.957 6.762 6.762 0 0 1 -2.357 2.442 12.268 12.268 0 0 1 -4.017 1.5q.451.621 2.132 2.755l4.557 5.866q1.946 2.46 2.27 2.743a1.091 1.091 0 0 0 .325.178 4.887 4.887 0 0 0 1.187.087v1.133c-.91-.082-1.7-.122-2.388-.122q-1.054 0-2.6.122-1.178-1.326-3.944-5.18-1.54-2.136-2.719-3.57c-1.264-1.577-2.477-3.008-3.619-4.3l.181-.529c.622.035 1.1.054 1.424.054a7.255 7.255 0 0 0 4.985-1.523 5.148 5.148 0 0 0 1.694-4.019 4.375 4.375 0 0 0 -1.461-3.462 6.563 6.563 0 0 0 -4.424-1.281 12.347 12.347 0 0 0 -3.645.55c-.047.637-.087 1.229-.11 1.784q-.015.248-.127 5.147v7.855q0 2.4.094 4.686a5.461 5.461 0 0 0 .239 2 1.237 1.237 0 0 0 .675.47 13.421 13.421 0 0 0 2.588.183v1.133c-1.711-.082-3.279-.122-4.715-.122q-1.728 0-5.829.122v-1.125a13.4 13.4 0 0 0 2.583-.183 1.207 1.207 0 0 0 .649-.418 4.405 4.405 0 0 0 .27-1.714q.025-.373.089-5.022v-8.189c0-1.605-.021-3.175-.054-4.705a5.562 5.562 0 0 0 -.26-1.993 1.24 1.24 0 0 0 -.67-.456 12.849 12.849 0 0 0 -2.607-.188"
     id="path232"
     style="fill:#000000" />
  <path
     d="m181.653 319.973a39.467 39.467 0 0 0 .346-5.5h1.21a13.052 13.052 0 0 0 .3 3.053 2.7 2.7 0 0 0 1 1 8.451 8.451 0 0 0 2.136.947 8.667 8.667 0 0 0 2.581.414 6.962 6.962 0 0 0 3.366-.823 5.23 5.23 0 0 0 2.242-2.164 6.059 6.059 0 0 0 .707-2.863 5.349 5.349 0 0 0 -.352-2.019 3.1 3.1 0 0 0 -1.077-1.37 4.484 4.484 0 0 0 -1.784-.735q-.666-.106-2.674-.36t-3.411-.553a7.751 7.751 0 0 1 -2.763-1.325 5.584 5.584 0 0 1 -1.437-2 6.517 6.517 0 0 1 -.55-2.67 7.5 7.5 0 0 1 1.112-3.932 7.378 7.378 0 0 1 3.283-2.872 10.944 10.944 0 0 1 4.72-1.024 15.8 15.8 0 0 1 3.354.4 15.433 15.433 0 0 1 3.382 1.161 18.491 18.491 0 0 0 -.358 2.078c-.072.646-.126 1.591-.166 2.841h-1.206a19.629 19.629 0 0 0 -.165-2.973 4.5 4.5 0 0 0 -1.231-1.149 7.9 7.9 0 0 0 -3.885-1.029 5.652 5.652 0 0 0 -4.186 1.563 5.453 5.453 0 0 0 -1.568 4.047 4.114 4.114 0 0 0 .56 2.329 3.815 3.815 0 0 0 2 1.318 18.7 18.7 0 0 0 3.25.63q2.256.3 4.061.637a6.945 6.945 0 0 1 2.51 1.178 5.168 5.168 0 0 1 1.34 1.792 6.031 6.031 0 0 1 .524 2.592 7.959 7.959 0 0 1 -2.98 6.149 11.246 11.246 0 0 1 -7.709 2.62 14.914 14.914 0 0 1 -6.485-1.384"
     id="path234"
     style="fill:#000000" />
  <path
     d="m214.007 319.711v1.133q-3.836-.124-5.043-.122l-5.573.122v-1.133a13.509 13.509 0 0 0 2.588-.183 1.2 1.2 0 0 0 .644-.419 4.325 4.325 0 0 0 .27-1.715q.021-.37.094-5.023v-8.186q0-2.408-.059-4.707a5.417 5.417 0 0 0 -.261-1.991 1.184 1.184 0 0 0 -.665-.456 12.582 12.582 0 0 0 -2.611-.188v-1.135q3.444.123 5.317.124 1.8 0 5.3-.124v1.135a12.449 12.449 0 0 0 -2.6.188 1.14 1.14 0 0 0 -.634.414 4.439 4.439 0 0 0 -.273 1.713q-.021.355-.087 5.027v8.186q0 2.408.054 4.689a5.436 5.436 0 0 0 .261 2 1.209 1.209 0 0 0 .67.473 13.557 13.557 0 0 0 2.606.183"
     id="path236"
     style="fill:#000000" />
  <path
     d="m220.481 301.57h-1.124q-.013-4.231-.178-5.862 1.967.07 6.176.179 3.41.071 4.55.07c.814 0 2.715-.037 5.683-.1q3.237-.073 4.715-.146-.219 1.984-.289 5.862h-1.154l-.146-1.7c-.1-1.025-.164-1.608-.2-1.749a.629.629 0 0 0 -.155-.3.662.662 0 0 0 -.3-.141c-.167-.035-.768-.084-1.8-.141s-1.852-.091-2.458-.091h-2.2a45.085 45.085 0 0 0 -.181 4.58v10.349c0 1.6.014 3.165.054 4.686a5.4 5.4 0 0 0 .261 2 1.206 1.206 0 0 0 .67.472 13.482 13.482 0 0 0 2.607.183v1.133q-3.237-.141-4.856-.141-.705 0-5.636.141v-1.133a13.612 13.612 0 0 0 2.606-.183 1.091 1.091 0 0 0 .626-.418 4.076 4.076 0 0 0 .291-1.716q0-.37.089-5.022v-10.321c0-.5-.011-1.039-.035-1.629l-.106-2.989h-2.7a30.917 30.917 0 0 0 -3.7.176.8.8 0 0 0 -.562.23 6.25 6.25 0 0 0 -.362 1.932z"
     id="path238"
     style="fill:#000000" />
  <path
     d="m245.144 297.266v-1.079l4.35-.832a3.506 3.506 0 0 1 .994.47 10.835 10.835 0 0 1 1.135 1.351 44.673 44.673 0 0 1 2.964 4.579q1.678 2.9 3.572 6.627 1.918-2.88 3.925-6.256l3.853-6.418h2.752v.479q-1 1.078-3.65 4.684-1.534 2.084-3.991 6.064a25.226 25.226 0 0 0 -1.73 3.015 3.034 3.034 0 0 0 -.2 1.051v1.363c0 1.607.014 3.17.055 4.691a5.416 5.416 0 0 0 .26 2 1.208 1.208 0 0 0 .668.472 13.483 13.483 0 0 0 2.609.184v1.133q-2.944-.124-5.093-.123-2.059 0-5.434.123v-1.133a13.415 13.415 0 0 0 2.587-.184 1.084 1.084 0 0 0 .626-.418 4.026 4.026 0 0 0 .291-1.718q.021-.371.087-5.027v-2.064c-.254-.532-.5-1.009-.736-1.434q-.254-.441-1.842-3.039l-1.196-1.912q-1.41-2.268-2.1-3.218a17.645 17.645 0 0 0 -2.178-2.634 2.784 2.784 0 0 0 -.987-.619 5.3 5.3 0 0 0 -1.6-.178"
     id="path240"
     style="fill:#000000" />
  <path
     d="m79.355 335.022h1.081v6.003l6.606-6.003h1.467l-5.079 4.611 5.319 6.551h-1.404l-4.726-5.817-2.183 1.986v3.831h-1.081z"
     id="path242"
     style="fill:#000000" />
  <path
     d="m103.552 345.509c2.992 0 4.268-2.468 4.268-4.907s-1.276-4.907-4.268-4.907c-3.008 0-4.285 2.47-4.285 4.907s1.277 4.907 4.285 4.907m0-10.722c3.568 0 5.349 2.767 5.349 5.815s-1.781 5.814-5.349 5.814-5.368-2.766-5.368-5.814 1.786-5.815 5.368-5.815"
     id="path244"
     style="fill:#000000" />
  <path
     d="m120.328 335.022h1.084v10.252h6.366v.91h-7.45z"
     id="path246"
     style="fill:#000000" />
  <path
     d="m138.601 335.022h1.084v6.003l6.606-6.003h1.467l-5.079 4.611 5.316 6.551h-1.401l-4.728-5.817-2.181 1.986v3.831h-1.084z"
     id="path248"
     style="fill:#000000" />
  <path
     d="m160.95 341.805h4.473l-2.2-5.72zm1.718-6.783h1.211l4.458 11.162h-1.163l-1.382-3.472h-5.176l-1.37 3.472h-1.163z"
     id="path250"
     style="fill:#000000" />
  <path
     d="m176.595 335.022h9.014v.907h-3.965v10.255h-1.084v-10.255h-3.965z"
     id="path252"
     style="fill:#000000" />
  <path
     d="m196.732 341.805h4.475l-2.2-5.72zm1.72-6.783h1.211l4.458 11.162h-1.163l-1.385-3.472h-5.173l-1.37 3.472h-1.161z"
     id="path254"
     style="fill:#000000" />
  <path
     d="m53.017 81.771-14.565-7.298 4.071-8.127 2.009 1.004-2.886 5.763 3.653 1.828 2.886-5.76 2.08 1.043-2.886 5.758 4.705 2.358 2.886-5.761 2.12 1.06z"
     id="path256" />
  <path
     d="m57.046 73.018-4.208-8.578-9.06-.348 1.533-2.192 4.618.217c.242.011.731.049 1.464.117.165.021.284.033.36.04-.125-.214-.259-.444-.4-.693s-.284-.527-.444-.834l-1.977-4.029 1.493-2.136 3.828 7.751 9.977.4-1.61 2.3-5.359-.249c-.016 0-.044 0-.089 0-.627-.054-1.215-.111-1.763-.167.141.23.285.475.43.733s.287.524.428.8l2.315 4.653z"
     id="path258" />
  <path
     d="m63.4 44.78a8.112 8.112 0 0 0 -2.64.856 7.308 7.308 0 0 0 -2.084 1.678 5.8 5.8 0 0 0 -1.547 4.407 6.674 6.674 0 0 0 6.621 5.786 5.433 5.433 0 0 0 3.983-1.988 7.407 7.407 0 0 0 1.41-2.419 8.66 8.66 0 0 0 .473-2.91l2.263 1.961a7.86 7.86 0 0 1 -.651 2.507 10.019 10.019 0 0 1 -4.228 4.523 8.153 8.153 0 0 1 -6.465.51 9.221 9.221 0 0 1 -5.1-4.41 8.354 8.354 0 0 1 -.434-6.5 9.156 9.156 0 0 1 1.753-2.971 8.86 8.86 0 0 1 2.106-1.8 9.607 9.607 0 0 1 2.609-1.085z"
     id="path260" />
  <path
     d="m74.032 51.752-10.842-12.163 6.785-6.049 1.497 1.678-4.811 4.289 2.719 3.048 4.809-4.289 1.546 1.737-4.808 4.287 3.504 3.929 4.809-4.289 1.577 1.77z"
     id="path262" />
  <path
     d="m82.069 44.785-9.549-13.199 2.144-1.551 8.162 11.277 3.293-2.268 1.389 1.92z"
     id="path264" />
  <path
     d="m88.157 40.403-8.504-13.894 2.259-1.382 7.267 11.873 3.563-2.28 1.236 2.024z"
     id="path266" />
  <path
     d="m94.914 36.281-7.237-14.598 8.146-4.038.997 2.015-5.773 2.86 1.815 3.662 5.772-2.863 1.034 2.085-5.772 2.86 2.338 4.717 5.773-2.863 1.052 2.123z"
     id="path268" />
  <path
     d="m104.309 31.543-5.321-16.075 12.955 6.2c.355.179.721.376 1.1.588s.776.456 1.2.738l-3.543-10.72 2.324-.771 5.317 16.066-13.211-6.306c-.353-.171-.7-.362-1.051-.566s-.681-.43-1.01-.672l3.558 10.755z"
     id="path270" />
  <path
     d="m131.118 12.333a8.2 8.2 0 0 0 -2.572-1.045 7.274 7.274 0 0 0 -2.674-.057 5.8 5.8 0 0 0 -4.021 2.372 6.084 6.084 0 0 0 -.959 4.648 6.068 6.068 0 0 0 2.294 4.043 5.426 5.426 0 0 0 4.331 1.043 7.4 7.4 0 0 0 2.639-.935 8.789 8.789 0 0 0 2.236-1.923l.467 2.957a7.774 7.774 0 0 1 -2.115 1.5 9.28 9.28 0 0 1 -2.632.8 9.45 9.45 0 0 1 -3.509-.059 8.162 8.162 0 0 1 -5.277-3.774 8.893 8.893 0 0 1 -1.161-3.236 8.8 8.8 0 0 1 .1-3.422 8.332 8.332 0 0 1 3.86-5.258 9.126 9.126 0 0 1 3.252-1.142 8.876 8.876 0 0 1 2.769-.019 9.693 9.693 0 0 1 2.7.851z"
     id="path272" />
  <path
     d="m134.756 24.519-.461-16.283 9.089-.256.063 2.247-6.439.179.115 4.084 6.442-.181.063 2.325-6.439.181.148 5.262 6.442-.181.065 2.367z"
     id="path274" />
  <path
     d="m151.8 21.459 2.239-.649a2.917 2.917 0 0 0 .835 1.814 3.447 3.447 0 0 0 1.939.877 2.612 2.612 0 0 0 1.95-.364 2.292 2.292 0 0 0 .954-1.634q.219-1.42-1.964-2.891c-.205-.143-.36-.251-.47-.319a11.521 11.521 0 0 1 -3.183-2.893 3.9 3.9 0 0 1 -.492-2.7 4.166 4.166 0 0 1 1.827-2.985 5.051 5.051 0 0 1 3.69-.684 5.926 5.926 0 0 1 2.875 1.144 3.677 3.677 0 0 1 1.36 2.225l-2.209.743a3.509 3.509 0 0 0 -.891-1.274 2.516 2.516 0 0 0 -1.274-.555 2.473 2.473 0 0 0 -1.761.291 1.9 1.9 0 0 0 -.846 1.38q-.225 1.452 2.313 3.124c.129.087.23.157.306.2a9.865 9.865 0 0 1 2.947 2.653 3.956 3.956 0 0 1 .489 2.76 4.791 4.791 0 0 1 -2 3.415 5.537 5.537 0 0 1 -4.1.752 5.713 5.713 0 0 1 -3.227-1.465 4.472 4.472 0 0 1 -1.306-2.97"
     id="path276" />
  <path
     d="m158.249 17.8h16.289v2.648h-16.289z"
     transform="matrix(.2335981 -.97233324 .97233324 .2335981 108.931 176.447)"
     id="path278" />
  <path
     d="m167.636 27.57 5.716-15.942 6.381 12.866c.169.362.336.74.5 1.139s.329.837.5 1.324l3.81-10.633 2.3.825-5.709 15.932-6.522-13.105c-.171-.352-.331-.719-.477-1.093s-.273-.759-.385-1.153l-3.82 10.663z"
     id="path280" />
  <path
     d="m200.588 28.949a8.114 8.114 0 0 0 -1.382-2.4 7.293 7.293 0 0 0 -2.071-1.7 5.789 5.789 0 0 0 -4.632-.606 6.081 6.081 0 0 0 -3.617 3.072 6.062 6.062 0 0 0 -.679 4.6 5.428 5.428 0 0 0 2.764 3.49 7.543 7.543 0 0 0 2.66.886 8.7 8.7 0 0 0 2.943-.139l-1.45 2.621a7.85 7.85 0 0 1 -2.59-.125 10.008 10.008 0 0 1 -5.293-3.2 8.143 8.143 0 0 1 -1.833-6.223 9.194 9.194 0 0 1 3.267-5.9 8.336 8.336 0 0 1 6.275-1.768 9.225 9.225 0 0 1 3.269 1.107 8.882 8.882 0 0 1 2.193 1.69 9.607 9.607 0 0 1 1.6 2.329z"
     id="path282" />
  <path
     d="m196.319 41.04 9.735-13.06 7.288 5.432-1.342 1.802-5.166-3.849-2.44 3.273 5.166 3.85-1.391 1.866-5.164-3.849-3.147 4.221 5.166 3.847-1.414 1.901z"
     id="path284" />
  <path
     d="m211.741 54.179 10.212-9.638-2.315-2.451 2.223-.691 3.272 3.464-11.735 11.074z"
     id="path286" />
  <path
     d="m230.488 54.128a2.621 2.621 0 0 0 -1.587-1.086 2.122 2.122 0 0 0 -1.72.467 2.049 2.049 0 0 0 -.881 1.491 2.593 2.593 0 0 0 .623 1.772 2.677 2.677 0 0 0 1.556 1.105 2.03 2.03 0 0 0 1.673-.456 2.15 2.15 0 0 0 .931-1.516 2.5 2.5 0 0 0 -.592-1.774m-10.045 7.563a3.178 3.178 0 0 0 1.958 1.335 2.684 2.684 0 0 0 2.143-.607 2.72 2.72 0 0 0 1.173-1.913 3.157 3.157 0 0 0 -.757-2.247 3.087 3.087 0 0 0 -1.951-1.3 3.078 3.078 0 0 0 -3.316 2.505 3.125 3.125 0 0 0 .75 2.226m3.852-6.3a3.928 3.928 0 0 1 .014-2.244 3.7 3.7 0 0 1 1.34-1.732 3.985 3.985 0 0 1 3.348-.81 6.16 6.16 0 0 1 4.43 5.857 4.13 4.13 0 0 1 -1.763 3.057 3.55 3.55 0 0 1 -2 .776 3.615 3.615 0 0 1 -2.1-.6 3.981 3.981 0 0 1 .033 2.644 4.649 4.649 0 0 1 -1.657 2.226 4.417 4.417 0 0 1 -3.708.949 7.217 7.217 0 0 1 -4.964-6.534 4.34 4.34 0 0 1 1.871-3.3 4.737 4.737 0 0 1 2.623-1.043 3.969 3.969 0 0 1 2.538.754"
     id="path288" />
  <path
     d="m224.023 69.909 11.96-7.356-1.767-2.872 2.32-.225 2.493 4.056-13.739 8.454z"
     id="path290" />
  <path
     d="m227.471 74.028 15.984 2.301-3.439-7.372 1.883-.915 5.051 10.694-19.402-2.357z"
     id="path292" />
  <path
     d="m151.022 228.2a9.285 9.285 0 1 1 -9.284-9.283 9.282 9.282 0 0 1 9.284 9.283"
     id="path294" />
  <path
     d="m141.738 228.2v-.844a107.772 107.772 0 0 0 76.1-31.03 104.89 104.89 0 0 0 29.705-94.368l.827-.155a105.708 105.708 0 0 1 -29.942 95.127 108.621 108.621 0 0 1 -76.689 31.27"
     id="path296" />
  <path
     d="m154.012 227.254s-.317 6.33 11.288 10.445a54.629 54.629 0 0 0 21 3.269s-5.8-10.444-16.248-11.92-12.346-1.688-12.978-2-3.06.211-3.06.211"
     id="path298" />
  <path
     d="m175.431 222.507s.738 4.113 7.49 6.012a51.075 51.075 0 0 0 22.788 1.161c-1.37-1.687-7.173-7.384-14.771-8.125s-10.022 0-12.027-.317z"
     id="path300" />
  <path
     d="m193.26 214.909s2.322 3.692 10.656 4.325a73.278 73.278 0 0 0 17.514-1.265s-5.276-8.23-22.788-6.014z"
     id="path302" />
  <path
     d="m208.77 204.886s.209 2.742 6.435 2.848 12.872-.738 18.884-3.692c-2.425-1.688-9.072-5.8-22.259-1.584z"
     id="path304" />
  <path
     d="m221.219 193.491s2.64 2.849 9.18.632 12.344-7.067 14.137-8.439c-.634-.529-7.49-1.8-12.766.843s-7.173 4.431-8.755 5.277z"
     id="path306" />
  <path
     d="m231.032 181.252s2.109 1.69 5.486-.1 9.918-4.538 14.771-12.555c-2.216-.214-8.23-.214-16.036 6.647a31.934 31.934 0 0 0 -4.221 6.012"
     id="path308" />
  <path
     d="m239.262 167.22a14.919 14.919 0 0 0 10.656-3.587 40.213 40.213 0 0 0 8.122-8.968s-7.384-2.217-16.456 7.807a25.97 25.97 0 0 0 -2.322 4.748"
     id="path310" />
  <path
     d="m246.014 149.178s4.115.423 8.337-4.009 6.54-7.808 7.6-10.341c-1.585 0-9.075.634-14.563 10.024a18.561 18.561 0 0 0 -1.37 4.326"
     id="path312" />
  <path
     d="m249.178 131.348s3.695 1.055 8.019-4.642a47.435 47.435 0 0 0 6.226-10.762s-8.442.315-13.928 13.082a18.355 18.355 0 0 1 -.317 2.322"
     id="path314" />
  <path
     d="m249.5 114.571s8.757-2.743 11.288-16.038c-1.161.108-7.069 1.8-11.394 12.769 0 2.32.106 3.269.106 3.269"
     id="path316" />
  <path
     d="m248.018 103.282s9.284-7.7-4.326-17.2c0 0-6.541 10.659 4.326 17.2"
     id="path318" />
  <path
     d="m236.939 102.86s5.909-4.219 12.344 9.6a19.2 19.2 0 0 1 .214 2.108s-6.017.635-9.18-4.536-3.378-7.175-3.378-7.175"
     id="path320" />
  <path
     d="m238 117.472s4.326-1.528 6.435 1.69a52.578 52.578 0 0 1 4.959 10.339l-.212 2.218s-6.961-1.638-9.072-7.124-2.11-7.123-2.11-7.123"
     id="path322" />
  <path
     d="m235.216 133.458s.565 13.646 10.621 16.036c-.632-4.43-1.408-10.621-4.992-14.628-1.9-1.972-5.629-1.408-5.629-1.408"
     id="path324" />
  <path
     d="m239.437 166.306s1.125-18.569-8.793-16.673c.353 4.5.494 10.553 2.745 13.437a14.4 14.4 0 0 0 5.874 4.15z"
     id="path326" />
  <path
     d="m231.63 179.951s.705-17.443-8.722-16.882c-.282 7.737 1.617 16.25 8.125 18.182a2 2 0 0 0 .6-1.3"
     id="path328" />
  <path
     d="m217.421 174.183s-3.516 14 3.8 19.308c2.251-2.285 2.392-3.41 2.392-3.41s.844-10.553-1.548-13.366-4.642-2.532-4.642-2.532"
     id="path330" />
  <path
     d="m210.669 183.044s-3.095 6.052-4.08 8.3a12.722 12.722 0 0 0 2.181 13.54c1.617-1.159 4.712-7.208 5.556-10.724s1.828-7.881-3.657-11.117"
     id="path332" />
  <path
     d="m199.556 191.205s-5.629 6.189-6.893 10.833-1.337 8.019.6 12.872c2.075-1.2 7.561-9.215 9.109-13.434s.562-6.473-2.813-10.271"
     id="path334" />
  <path
     d="m184.644 198.521s-5.206 5.344-7.032 8.3-5.065 8.3-2.181 15.685c2.6-1.2 5.695-2.745 10.057-9.92 2.531-4.219 4.783-8.722-.844-14.066"
     id="path336" />
  <path
     d="m168.466 202.739s-6.047 4.5-8.581 6.894-7.878 9-5.344 17.443c3.936-.843 5.344-1.687 8.719-4.78a34.522 34.522 0 0 0 6.893-8.3c1.126-2.111 2.673-4.5-1.687-11.256"
     id="path338" />
  <path
     d="m141.738 228.2a108.624 108.624 0 0 1 -76.691-31.27 105.718 105.718 0 0 1 -29.947-95.124l.828.155a104.887 104.887 0 0 0 29.707 94.368 107.768 107.768 0 0 0 76.1 31.03z"
     id="path340" />
  <path
     d="m129.463 227.254s.317 6.33-11.288 10.445a54.629 54.629 0 0 1 -21 3.269s5.8-10.444 16.25-11.92 12.344-1.688 12.978-2 3.058.211 3.058.211"
     id="path342" />
  <path
     d="m108.046 222.507s-.74 4.113-7.49 6.012a51.091 51.091 0 0 1 -22.791 1.161c1.371-1.687 7.173-7.384 14.772-8.125s10.021 0 12.026-.317z"
     id="path344" />
  <path
     d="m90.216 214.909s-2.322 3.692-10.659 4.325a73.278 73.278 0 0 1 -17.514-1.265s5.277-8.23 22.791-6.014z"
     id="path346" />
  <path
     d="m74.706 204.886s-.211 2.742-6.437 2.848-12.869-.734-18.887-3.692c2.428-1.688 9.075-5.8 22.264-1.584z"
     id="path348" />
  <path
     d="m62.256 193.491s-2.637 2.849-9.18.632-12.344-7.067-14.137-8.439c.632-.529 7.49-1.8 12.764.843s7.176 4.431 8.76 5.277z"
     id="path350" />
  <path
     d="m52.443 181.252s-2.109 1.69-5.486-.1-9.918-4.538-14.771-12.555c2.216-.214 8.23-.214 16.038 6.647a31.99 31.99 0 0 1 4.219 6.012"
     id="path352" />
  <path
     d="m44.214 167.22a14.916 14.916 0 0 1 -10.656-3.587 40.278 40.278 0 0 1 -8.125-8.968s7.385-2.217 16.459 7.807a26.238 26.238 0 0 1 2.322 4.748"
     id="path354" />
  <path
     d="m37.461 149.178s-4.115.423-8.334-4.009-6.541-7.808-7.6-10.341c1.584 0 9.074.634 14.56 10.024a18.6 18.6 0 0 1 1.372 4.326"
     id="path356" />
  <path
     d="m34.3 131.348s-3.7 1.052-8.02-4.642a47.435 47.435 0 0 1 -6.226-10.762s8.44.315 13.925 13.082a18.227 18.227 0 0 0 .318 2.322"
     id="path358" />
  <path
     d="m33.98 114.571s-8.759-2.743-11.288-16.038c1.158.108 7.067 1.8 11.394 12.769 0 2.32-.106 3.269-.106 3.269"
     id="path360" />
  <path
     d="m35.457 103.282s-9.286-7.7 4.327-17.2c0 0 6.541 10.659-4.327 17.2"
     id="path362" />
  <path
     d="m46.534 102.86s-5.908-4.219-12.343 9.6a19.38 19.38 0 0 0 -.212 2.108s6.014.635 9.178-4.536 3.377-7.175 3.377-7.175"
     id="path364" />
  <path
     d="m45.479 117.472s-4.325-1.528-6.435 1.69a52.52 52.52 0 0 0 -4.959 10.338l.211 2.218s6.964-1.638 9.072-7.124 2.111-7.123 2.111-7.123"
     id="path366" />
  <path
     d="m48.258 133.458s-.564 13.646-10.621 16.036c.633-4.43 1.408-10.621 4.995-14.628 1.9-1.972 5.626-1.408 5.626-1.408"
     id="path368" />
  <path
     d="m44.038 166.306s-1.126-18.569 8.792-16.673c-.352 4.5-.493 10.553-2.742 13.437a14.418 14.418 0 0 1 -5.874 4.15z"
     id="path370" />
  <path
     d="m51.844 179.951s-.7-17.443 8.722-16.882c.282 7.737-1.617 16.25-8.123 18.182a2 2 0 0 1 -.6-1.3"
     id="path372" />
  <path
     d="m66.054 174.183s3.516 14-3.8 19.308c-2.252-2.285-2.393-3.41-2.393-3.41s-.843-10.553 1.549-13.366 4.642-2.532 4.642-2.532"
     id="path374" />
  <path
     d="m72.806 183.044s3.095 6.052 4.079 8.3a12.724 12.724 0 0 1 -2.178 13.54c-1.619-1.159-4.715-7.208-5.559-10.724s-1.828-7.881 3.658-11.117"
     id="path376" />
  <path
     d="m83.919 191.205s5.628 6.189 6.893 10.833 1.337 8.019-.6 12.872c-2.073-1.2-7.561-9.215-9.107-13.434s-.564-6.473 2.811-10.271"
     id="path378" />
  <path
     d="m98.831 198.521s5.206 5.344 7.034 8.3 5.065 8.3 2.181 15.685c-2.6-1.2-5.7-2.745-10.059-9.92-2.531-4.219-4.783-8.722.844-14.066"
     id="path380" />
  <path
     d="m115.009 202.739s6.049 4.5 8.58 6.894 7.878 9 5.347 17.443c-3.939-.843-5.347-1.687-8.722-4.78a34.661 34.661 0 0 1 -6.895-8.3c-1.124-2.111-2.67-4.5 1.69-11.256"
     id="path382" />
  <path
     d="m181.97 52.64s.844 13.925-13.293 21.841c-4.658 2.606-18.783 11.429-22.471 15.824-2.218 2.637-4.961 4.327-4.432 20.68 0 0 .949-10.55 13.293-17.726s30.807-14.139 26.9-40.619m0 38.4s.844 13.928-13.293 21.841c-4.658 2.609-18.783 11.432-22.471 15.824-2.218 2.64-4.961 6.473-4.432 22.828 0 0 1.424-11.328 13.467-18.992 12.381-7.878 30.809-13.364 26.729-41.5m0-19.272s.844 13.928-13.293 21.838c-4.658 2.609-18.783 11.437-22.471 15.827-2.218 2.637-4.961 4.327-4.432 20.68 0 0 .949-10.55 13.293-17.726s30.807-14.136 26.9-40.619m-40.225 81.991c-5.556 15.551-33.626 19.49-42.394 20.351 11.076 12.167 25.986 19.627 42.394 19.627s31.317-7.46 42.394-19.627c-8.769-.861-36.841-4.8-42.394-20.351m83.84-32.331a83.842 83.842 0 1 1 -83.84-83.843 83.838 83.838 0 0 1 83.84 83.843"
     fill="#507dbf"
     id="path384" />
</svg>
