<?xml version="1.0" encoding="UTF-8" standalone="no"?>
<svg
   xmlns:dc="http://purl.org/dc/elements/1.1/"
   xmlns:cc="http://creativecommons.org/ns#"
   xmlns:rdf="http://www.w3.org/1999/02/22-rdf-syntax-ns#"
   xmlns:svg="http://www.w3.org/2000/svg"
   xmlns="http://www.w3.org/2000/svg"
   height="48.151672"
   width="325.905"
   xml:space="preserve"
   enable-background="new 0 0 330 60"
   viewBox="0 0 325.905 48.151672"
   y="0px"
   x="0px"
   id="Layer_1"
   version="1.1"><title
   id="title862">Logo of SoloLearn</title><metadata
   id="metadata55"><rdf:RDF><cc:Work
       rdf:about=""><dc:format>image/svg+xml</dc:format><dc:type
         rdf:resource="http://purl.org/dc/dcmitype/StillImage" /><dc:title>Logo of SoloLearn</dc:title><dc:creator><cc:Agent><dc:title>SoloLearn Inc.</dc:title></cc:Agent></dc:creator><dc:rights><cc:Agent><dc:title></dc:title></cc:Agent></dc:rights><cc:license
         rdf:resource="" /></cc:Work></rdf:RDF></metadata><defs
   id="defs53" />
                <g
   transform="translate(-1.3950037,-2.1315906)"
   style="fill:#000000"
   id="g48">
                <g
   style="fill:#000000"
   id="g46">
                <g
   style="fill:#000000"
   id="g26">
                <g
   style="fill:#6cb94f;fill-opacity:1"
   id="g4">
                <path
   style="fill:#6cb94f;fill-opacity:1"
   id="path2"
   d="m 120.8,4 c -6.8,2.2 -13.9,8.4 -13,15.4 0,8 8,14.2 15.9,16.8 C 117.5,29.1 113.1,20.3 117,10.6 118.8,6.5 120.8,4 120.8,4 Z" />
			                    </g>
                <g
   style="fill:#158e9b;fill-opacity:1"
   id="g8">
                <path
   style="fill:#158e9b;fill-opacity:1"
   id="path6"
   d="m 106.1,21.3 c -2.7,7 -0.1,15.8 5.2,19.4 7.1,5.3 16.8,2.7 23.9,-3.5 -9.7,1.8 -20.3,0 -25.7,-8.7 -2.4,-4.1 -3.4,-7.2 -3.4,-7.2 z" />
			                    </g>
                <g
   style="fill:#2fb7e9;fill-opacity:1"
   id="g12">
                <path
   style="fill:#2fb7e9;fill-opacity:1"
   id="path10"
   d="m 112.5,43.4 c 4.9,6 13.8,8.5 20.9,5.8 4.8,-1.9 8.4,-7.1 9.2,-13 0.5,-3 -0.1,-5.5 -0.5,-8.5 -3.5,9.7 -11.4,16.5 -21.6,17 -4.7,-0.3 -8,-1.3 -8,-1.3 z" />
			                    </g>
                <g
   style="fill:#eb58a0;fill-opacity:1"
   id="g16">
                <path
   style="fill:#eb58a0;fill-opacity:1"
   id="path14"
   d="m 136.4,49.6 c 7.7,-1.9 15.6,-9 15.6,-16.9 0,-5.3 -5.5,-14.8 -15.9,-16.8 7.1,7.1 11.5,18.6 5.4,27.5 -2.7,3.9 -5.1,6.2 -5.1,6.2 z" />
			                    </g>
                <g
   style="fill:#ea545e;fill-opacity:1"
   id="g20">
                <path
   style="fill:#ea545e;fill-opacity:1"
   id="path18"
   d="m 153.5,30.5 c 1.1,-7.6 -0.7,-17.3 -7.7,-20.9 -4.4,-2.7 -17.3,-0.1 -21.2,7.1 8.9,-3.5 20.3,-2.7 25.7,6.8 2.3,3.9 3.2,7 3.2,7 z" />
			                    </g>
                <g
   style="fill:#ef7543;fill-opacity:1"
   id="g24">
                <path
   style="fill:#ef7543;fill-opacity:1"
   id="path22"
   d="M 144.3,7.1 C 138.7,2.6 129.9,0 123.7,4.4 c -7.1,4.4 -8.8,14.1 -4.4,22.1 0.9,-9.7 8,-17.7 17.4,-19.4 4.4,-0.5 7.6,0 7.6,0 z" />
			                    </g>
		                    </g>
                <g
   style="fill:#000000"
   id="g44">
                <path
   style="fill:#5584ac"
   id="path28"
   d="m 24.4,37.1 c 0,-1.8 -0.7,-3.3 -2,-4.6 -1.3,-1.2 -3.6,-2.3 -6.9,-3.1 -4.1,-1 -7.3,-2.5 -9.6,-4.5 -2.3,-2 -3.4,-4.4 -3.4,-7.4 0,-3.1 1.2,-5.8 3.7,-7.9 2.5,-2.1 5.7,-3.1 9.6,-3.1 4.2,0 7.6,1.2 10.1,3.6 2.5,2.4 3.7,5.2 3.7,8.4 l -0.1,0.2 h -5.2 c 0,-2.3 -0.8,-4.2 -2.4,-5.7 -1.6,-1.5 -3.6,-2.2 -6.1,-2.2 -2.5,0 -4.5,0.6 -5.8,1.8 -1.4,1.2 -2,2.8 -2,4.8 0,1.7 0.7,3.2 2.2,4.4 1.5,1.2 3.9,2.2 7.2,3.1 4,1 7.1,2.6 9.2,4.6 2.1,2 3.2,4.6 3.2,7.6 0,3.2 -1.3,5.8 -3.8,7.8 -2.5,2 -5.9,2.9 -10,2.9 -3.9,0 -7.3,-1.1 -10.3,-3.3 -3,-2.2 -4.4,-5.1 -4.3,-8.7 l 0.1,-0.2 h 5.2 c 0,2.5 1,4.5 2.9,5.8 1.9,1.4 4.1,2.1 6.5,2.1 2.6,0 4.6,-0.6 6.1,-1.7 1.4,-1.2 2.2,-2.7 2.2,-4.7 z" />
                <path
   style="fill:#5584ac;fill-opacity:1"
   id="path30"
   d="m 68.1,30.7 c 0,4.9 -1.5,9 -4.6,12.2 -3,3.2 -7,4.9 -11.8,4.9 -4.7,0 -8.5,-1.6 -11.4,-4.9 -2.9,-3.2 -4.4,-7.3 -4.4,-12.2 v -7.1 c 0,-4.9 1.5,-9 4.4,-12.2 2.9,-3.3 6.7,-4.9 11.4,-4.9 4.9,0 8.8,1.6 11.8,4.9 3,3.2 4.6,7.3 4.6,12.2 z m -5.4,-7.2 c 0,-3.7 -1,-6.7 -3,-9 -2,-2.4 -4.6,-3.5 -8,-3.5 -3.2,0 -5.7,1.2 -7.6,3.5 -1.9,2.4 -2.8,5.4 -2.8,9 v 7.2 c 0,3.7 0.9,6.7 2.8,9.1 1.9,2.4 4.4,3.5 7.6,3.5 3.4,0 6,-1.2 8,-3.5 2,-2.3 3,-5.4 3,-9.1 z" />
                <path
   style="fill:#5584ac;fill-opacity:1"
   id="path32"
   d="M 81.4,43 H 101 v 4.2 H 76 V 7.1 h 5.4 z" />
                <path
   style="fill:#959494;fill-opacity:1"
   id="path34"
   d="m 168.6,43 h 19.6 v 4.2 h -25 V 7.1 h 5.4 z" />
                <path
   style="fill:#959494;fill-opacity:1"
   id="path36"
   d="M 216.1,28.6 H 199.6 V 43 h 19.3 v 4.2 H 194.2 V 7.1 h 24.4 v 4.3 h -19 v 13 h 16.5 z" />
                <path
   style="fill:#959494;fill-opacity:1"
   id="path38"
   d="m 246,36.9 h -15.1 l -3.6,10.3 h -5.5 L 236.3,7.1 h 4.7 l 14.2,40.1 h -5.5 z m -13.5,-4.6 h 12 l -5.8,-17.2 h -0.2 z" />
                <path
   style="fill:#959494;fill-opacity:1"
   id="path40"
   d="M 266.4,29.8 V 47.2 H 261 V 7.1 h 13.7 c 4.4,0 7.7,1 10.1,2.9 2.3,1.9 3.5,4.8 3.5,8.5 0,2.1 -0.5,3.9 -1.6,5.4 -1.1,1.5 -2.6,2.7 -4.7,3.6 2.2,0.7 3.8,1.9 4.8,3.5 1,1.6 1.4,3.6 1.4,6 v 3.8 c 0,1.2 0.1,2.4 0.4,3.4 0.3,1 0.8,1.8 1.4,2.4 v 0.7 h -5.6 c -0.7,-0.6 -1.2,-1.5 -1.4,-2.8 -0.2,-1.2 -0.3,-2.5 -0.3,-3.7 V 37 c 0,-2.2 -0.6,-3.9 -1.9,-5.2 -1.3,-1.3 -3,-2 -5.1,-2 z m 0,-4.3 h 7.7 c 3.1,0 5.3,-0.6 6.6,-1.8 1.3,-1.2 2,-2.9 2,-5.3 0,-2.3 -0.7,-4 -2,-5.3 -1.3,-1.2 -3.4,-1.9 -6.1,-1.9 h -8.3 v 14.3 z" />
                <path
   style="fill:#959494;fill-opacity:1"
   id="path42"
   d="m 327.3,47.2 h -5.4 l -19.3,-30.7 -0.2,0.1 V 47.2 H 297 V 7.1 h 5.4 l 19.3,30.6 0.2,-0.1 V 7.1 h 5.4 z" />
		                    </g>
	                    </g>
                    </g>
                </svg>